<?xml version="1.0" encoding="UTF-8"?>
<!DOCTYPE svg PUBLIC "-//W3C//DTD SVG 1.1//EN" "http://www.w3.org/Graphics/SVG/1.1/DTD/svg11.dtd">
<svg xmlns="http://www.w3.org/2000/svg" version="1.1" width="1477px" height="442px" style="shape-rendering:geometricPrecision; text-rendering:geometricPrecision; image-rendering:optimizeQuality; fill-rule:evenodd; clip-rule:evenodd" xmlns:xlink="http://www.w3.org/1999/xlink">
<g><path style="opacity:0.99" fill="#f3e5d6" d="M 196.5,-0.5 C 200.5,-0.5 204.5,-0.5 208.5,-0.5C 213.02,1.09328 217.353,3.25995 221.5,6C 222.786,8.02228 223.786,10.1889 224.5,12.5C 221.294,19.2073 217.461,25.5407 213,31.5C 211.126,35.4797 211.126,39.4797 213,43.5C 217.8,49.3017 222.967,54.8017 228.5,60C 247.969,77.8012 267.136,95.9679 286,114.5C 290.249,121.408 291.249,128.742 289,136.5C 286.255,142.325 283.255,147.992 280,153.5C 274.26,161.202 266.593,164.536 257,163.5C 249.522,163.923 242.689,162.09 236.5,158C 236.051,132.038 222.718,117.538 196.5,114.5C 179.996,116.173 171.663,125.339 171.5,142C 171.729,148.481 173.229,154.648 176,160.5C 179.606,166.707 183.939,172.373 189,177.5C 189.034,198.231 189.701,218.898 191,239.5C 193.247,245.247 197.081,249.58 202.5,252.5C 202.9,259.446 204.4,266.113 207,272.5C 212.213,279.184 219.046,281.851 227.5,280.5C 227.708,282.92 227.374,285.253 226.5,287.5C 175.504,288.5 124.504,288.833 73.5,288.5C 75.8541,281.544 77.1874,274.378 77.5,267C 76.387,248.258 66.7204,236.758 48.5,232.5C 46.3478,198.822 48.8478,165.488 56,132.5C 64.9849,93.3049 86.1516,62.8049 119.5,41C 136.872,31.0984 155.539,25.4317 175.5,24C 179.159,12.7749 186.159,4.60828 196.5,-0.5 Z M 123.5,81.5 C 128.351,80.8681 130.851,82.8681 131,87.5C 101.471,116.922 90.4708,152.255 98,193.5C 100.393,205.178 103.893,216.512 108.5,227.5C 106.65,232.753 103.484,233.753 99,230.5C 88.0614,205.537 84.0614,179.537 87,152.5C 91.2705,124.622 103.437,100.956 123.5,81.5 Z"/></g>
<g><path style="opacity:0.987" fill="#f3e5d6" d="M 1040.5,173.5 C 1054.54,173.134 1068.54,173.634 1082.5,175C 1103.73,177.846 1118.56,189.013 1127,208.5C 1127.94,212.478 1128.77,216.478 1129.5,220.5C 1129.12,222.383 1128.12,223.883 1126.5,225C 1108.5,225.667 1090.5,225.667 1072.5,225C 1071.17,224.667 1069.83,224.333 1068.5,224C 1066.65,221.429 1064.98,218.762 1063.5,216C 1055.06,213.024 1047.56,214.524 1041,220.5C 1039.78,227.299 1042.61,231.466 1049.5,233C 1064.83,237 1080.17,241 1095.5,245C 1126.33,254.815 1138.5,275.648 1132,307.5C 1126.19,325.307 1114.36,337.141 1096.5,343C 1063.83,354.96 1031.5,354.294 999.5,341C 985.493,330.831 977.826,316.997 976.5,299.5C 997.159,298.334 1017.83,298.167 1038.5,299C 1040.47,302.897 1042.8,306.563 1045.5,310C 1054.77,314.292 1062.94,312.792 1070,305.5C 1072,301.833 1072,298.167 1070,294.5C 1067.62,291.727 1064.78,289.561 1061.5,288C 1043.15,284.246 1025.15,279.246 1007.5,273C 982.525,262.549 973.358,244.049 980,217.5C 985.247,199.919 996.414,187.752 1013.5,181C 1022.4,177.694 1031.4,175.194 1040.5,173.5 Z"/></g>
<g><path style="opacity:0.987" fill="#f3e5d6" d="M 1203.5,173.5 C 1217.54,173.134 1231.54,173.634 1245.5,175C 1266.73,177.846 1281.56,189.013 1290,208.5C 1290.94,212.478 1291.77,216.478 1292.5,220.5C 1292.12,222.383 1291.12,223.883 1289.5,225C 1271.5,225.667 1253.5,225.667 1235.5,225C 1234.17,224.667 1232.83,224.333 1231.5,224C 1229.65,221.429 1227.98,218.762 1226.5,216C 1218.06,213.024 1210.56,214.524 1204,220.5C 1202.78,227.299 1205.61,231.466 1212.5,233C 1227.83,237 1243.17,241 1258.5,245C 1289.33,254.815 1301.5,275.648 1295,307.5C 1289.19,325.307 1277.36,337.141 1259.5,343C 1226.83,354.96 1194.5,354.294 1162.5,341C 1148.49,330.831 1140.83,316.997 1139.5,299.5C 1160.16,298.334 1180.83,298.167 1201.5,299C 1203.47,302.897 1205.8,306.563 1208.5,310C 1217.77,314.292 1225.94,312.792 1233,305.5C 1235,301.833 1235,298.167 1233,294.5C 1230.62,291.727 1227.78,289.561 1224.5,288C 1206.15,284.246 1188.15,279.246 1170.5,273C 1145.52,262.549 1136.36,244.049 1143,217.5C 1148.25,199.919 1159.41,187.752 1176.5,181C 1185.4,177.694 1194.4,175.194 1203.5,173.5 Z"/></g>
<g><path style="opacity:0.988" fill="#f3e5d6" d="M 554.5,175.5 C 568.937,174.899 583.27,175.732 597.5,178C 629.297,187.621 644.63,208.954 643.5,242C 624.195,243.544 604.862,243.877 585.5,243C 582.425,238.335 580.592,233.168 580,227.5C 575.58,219.031 569.08,217.198 560.5,222C 554.854,227.128 551.687,233.628 551,241.5C 550.583,252.504 550.083,263.504 549.5,274.5C 549.286,282.845 550.786,290.845 554,298.5C 558.704,305.178 564.87,307.012 572.5,304C 576.707,298.085 579.707,291.585 581.5,284.5C 602.489,283.5 623.489,283.167 644.5,283.5C 643.771,317.391 627.105,338.891 594.5,348C 575.579,352.245 556.579,352.578 537.5,349C 515.576,343.07 499.743,329.903 490,309.5C 479.123,282.299 477.79,254.632 486,226.5C 493.434,204.733 507.934,189.9 529.5,182C 537.762,179.019 546.095,176.853 554.5,175.5 Z"/></g>
<g><path style="opacity:0.99" fill="#f3e5d6" d="M 1476.5,252.5 C 1476.5,263.833 1476.5,275.167 1476.5,286.5C 1475.83,304.338 1475.17,322.338 1474.5,340.5C 1461.36,345.763 1447.69,348.93 1433.5,350C 1415.5,350.667 1397.5,350.667 1379.5,350C 1328.75,342.903 1303.08,313.57 1302.5,262C 1304.12,210.713 1330.45,182.047 1381.5,176C 1400.39,174.437 1419.06,175.771 1437.5,180C 1461.8,188.949 1473.13,206.283 1471.5,232C 1451.17,232.667 1430.83,232.667 1410.5,232C 1409.39,228.106 1407.72,224.439 1405.5,221C 1392.87,215.134 1383.04,218.301 1376,230.5C 1369.08,252.411 1368.75,274.411 1375,296.5C 1381.07,304.696 1389.24,308.362 1399.5,307.5C 1406.24,306.871 1412.9,305.871 1419.5,304.5C 1419.5,298.833 1419.5,293.167 1419.5,287.5C 1412.16,287.666 1404.83,287.5 1397.5,287C 1397,286.5 1396.5,286 1396,285.5C 1395.18,273.924 1395.35,262.424 1396.5,251C 1421.5,250.333 1446.5,250.333 1471.5,251C 1473.25,251.352 1474.91,251.852 1476.5,252.5 Z"/></g>
<g><path style="opacity:0.992" fill="#f3e5d6" d="M 753.5,177.5 C 771.836,177.333 790.17,177.5 808.5,178C 811.692,178.197 814.692,179.03 817.5,180.5C 818.833,235.833 818.833,291.167 817.5,346.5C 795.876,347.655 774.21,347.822 752.5,347C 752,346.5 751.5,346 751,345.5C 750.667,326.5 750.333,307.5 750,288.5C 747.539,287.782 745.039,287.115 742.5,286.5C 736.896,287.454 731.229,287.788 725.5,287.5C 725.826,307.076 725.493,326.576 724.5,346C 702.492,346.833 680.492,346.666 658.5,345.5C 657.847,336.879 657.514,328.212 657.5,319.5C 657.986,272.825 658.819,226.158 660,179.5C 677.76,178.342 695.593,178.175 713.5,179C 717.098,179.154 720.431,180.154 723.5,182C 724.191,183.067 724.691,184.234 725,185.5C 725.403,202.503 725.236,219.503 724.5,236.5C 733.751,236.818 742.917,236.485 752,235.5C 752.179,216.094 752.679,196.76 753.5,177.5 Z"/></g>
<g><path style="opacity:0.99" fill="#f3e5d6" d="M 928.5,177.5 C 941.746,177.177 954.913,177.511 968,178.5C 968.814,191.546 968.647,204.546 967.5,217.5C 946.844,218.5 926.177,218.833 905.5,218.5C 904.12,226.769 903.454,235.102 903.5,243.5C 923.167,243.5 942.833,243.5 962.5,243.5C 962.58,254.843 962.913,266.176 963.5,277.5C 943.864,278.805 924.198,279.472 904.5,279.5C 904.5,287.833 904.5,296.167 904.5,304.5C 926.168,303.98 947.834,303.813 969.5,304C 970.227,316.274 970.893,328.607 971.5,341C 971.397,342.561 971.063,344.061 970.5,345.5C 927.492,346.496 884.492,347.329 841.5,348C 841,347.5 840.5,347 840,346.5C 840.566,290.933 840.4,235.433 839.5,180C 840,179.5 840.5,179 841,178.5C 843.578,179.141 846.245,179.475 849,179.5C 875.662,178.902 902.162,178.236 928.5,177.5 Z"/></g>
<g><path style="opacity:0.989" fill="#f2e4d5" d="M 199.5,187.5 C 209.5,187.5 219.5,187.5 229.5,187.5C 229.5,197.167 229.5,206.833 229.5,216.5C 238.5,216.5 247.5,216.5 256.5,216.5C 256.5,206.833 256.5,197.167 256.5,187.5C 266.5,187.5 276.5,187.5 286.5,187.5C 286.5,197.167 286.5,206.833 286.5,216.5C 295.5,216.5 304.5,216.5 313.5,216.5C 313.5,206.833 313.5,197.167 313.5,187.5C 323.5,187.5 333.5,187.5 343.5,187.5C 343.667,203.503 343.5,219.503 343,235.5C 341.629,238.88 339.462,241.713 336.5,244C 314.895,245.151 293.228,245.651 271.5,245.5C 250.833,245.333 230.167,245.167 209.5,245C 205,243.167 201.833,240 200,235.5C 199.5,219.503 199.333,203.503 199.5,187.5 Z"/></g>
<g><path style="opacity:0.976" fill="#f2e5d6" d="M 213.5,255.5 C 252.167,255.5 290.833,255.5 329.5,255.5C 330.503,261.328 328.836,266.161 324.5,270C 289.167,270.667 253.833,270.667 218.5,270C 214.164,266.161 212.497,261.328 213.5,255.5 Z"/></g>
<g><path style="opacity:0.992" fill="#f3e5d6" d="M 237.5,280.5 C 260.167,280.5 282.833,280.5 305.5,280.5C 307.538,314.138 311.871,347.471 318.5,380.5C 287.167,380.5 255.833,380.5 224.5,380.5C 231.128,347.475 235.462,314.141 237.5,280.5 Z"/></g>
<g><path style="opacity:0.992" fill="#f3e4d6" d="M 53.5,298.5 C 110.833,298.5 168.167,298.5 225.5,298.5C 225.2,307.862 224.534,317.195 223.5,326.5C 161.5,326.5 99.5,326.5 37.5,326.5C 34.6466,312.181 39.9799,302.848 53.5,298.5 Z"/></g>
<g><path style="opacity:0.998" fill="#f2e5d6" d="M -0.5,375.5 C -0.5,368.167 -0.5,360.833 -0.5,353.5C 0.797648,349.408 2.79765,345.575 5.5,342C 9.03543,339.233 13.0354,337.566 17.5,337C 85.4992,336.5 153.499,336.333 221.5,336.5C 220.042,349.584 218.042,362.584 215.5,375.5C 143.5,375.5 71.5,375.5 -0.5,375.5 Z"/></g>
<g><path style="opacity:0.984" fill="#f3e4d6" d="M 214.5,391.5 C 252.501,391.333 290.501,391.5 328.5,392C 333.596,395.023 335.929,399.523 335.5,405.5C 292.833,405.5 250.167,405.5 207.5,405.5C 207.203,399.426 209.537,394.759 214.5,391.5 Z"/></g>
<g><path style="opacity:0.987" fill="#f2e5d6" d="M 351.5,441.5 C 298.167,441.5 244.833,441.5 191.5,441.5C 191.196,435.423 191.696,429.423 193,423.5C 194.5,420.667 196.667,418.5 199.5,417C 223.452,415.853 247.452,415.353 271.5,415.5C 295.548,415.353 319.548,415.853 343.5,417C 347.49,418.99 349.99,422.157 351,426.5C 351.499,431.489 351.666,436.489 351.5,441.5 Z"/></g>
</svg>
